<svg width="20" height="20" viewBox="0 0 20 20" fill="none" xmlns="http://www.w3.org/2000/svg">
<path d="M20 2.02925C17.3099 1.59384 15.3119 2.10842 14.0058 3.57297C12.6998 5.03753 12.0468 7.19478 12.0468 10.0447V18.1196H20V10.0447H15.9064C15.692 8.61975 15.8869 7.46196 16.4912 6.57135C17.115 5.68074 18.1287 5.29481 19.5322 5.41356L20 2.02925ZM7.95322 2.02925C5.26316 1.59384 3.26511 2.10842 1.95906 3.57297C0.653022 5.03753 0 7.19478 0 10.0447V18.1196H7.95322V10.0447H3.85965C3.64522 8.61975 3.84016 7.46196 4.44444 6.57135C5.06823 5.68074 6.08187 5.29481 7.48538 5.41356L7.95322 2.02925Z" fill="white"/>
</svg>
